# xmcd
#
# Track frame offsets:
#	182
#	11907
#	24607
#	36570
#	48882
#	59845
#	71270
#	83007
#	93082
#	106420
#	122032
#	135832
#	146070
#	156195
#
# Disc length: 2311 seconds
#
# Revision: 3
# Processed by: cddbd v1.5.1PL0 Copyright (c) Steve Scherf et al.
# Submitted via: CDmax 2.0
#
DISCID=bb09050e
DTITLE=John Lee Hooker - The Great John Lee Hooker
DYEAR=1993
DGENRE=Blues
TTITLE0=Boogie Chillun
TTITLE1=Hobo Blues
TTITLE2=Crawling King Snake Blues
TTITLE3=I'm In The Mood
TTITLE4=No Shoes
TTITLE5=Boom Boom
TTITLE6=Little Wheel
TTITLE7=Dimples
TTITLE8=Ground Hog Blues
TTITLE9=Hey Baby
TTITLE10=I Don't Want Your Money
TTITLE11=Maudie
TTITLE12=Want Ad Blues
TTITLE13=Blues Before Sunrise
EXTD=
EXTT0=(Hooker/Besman)
EXTT1=(Hooker)
EXTT2=(Hooker/Besman)
EXTT3=(Hooker/Besman)
EXTT4=(Hooker)
EXTT5=(Hooker)
EXTT6=(Hooker)
EXTT7=(Hooker/Bracken)
EXTT8=(Hooker)
EXTT9=(Hooker)
EXTT10=(Hooker)
EXTT11=(Hooker)
EXTT12=(Hooker)
EXTT13=(Carr)
PLAYORDER=
